<svg
  xmlns="http://www.w3.org/2000/svg"
  aria-hidden="true"
  style="position:absolute;width:0;height:0;overflow:hidden"
>
  <defs>
    <symbol id="icon-send" viewBox="0 0 188 32">
      <path
        fill="#fff"
        d="M9.876 14.016H4.032l-.031-3.219h4.906c.865 0 1.573-.109 2.125-.328.552-.229.964-.557 1.234-.984.281-.438.422-.969.422-1.594 0-.708-.135-1.281-.406-1.719-.26-.438-.672-.755-1.234-.953-.552-.198-1.266-.297-2.141-.297h-3.25V24H.969V1.25h7.938c1.323 0 2.505.125 3.547.375 1.052.25 1.943.63 2.672 1.141s1.286 1.156 1.672 1.938c.385.771.578 1.688.578 2.75 0 .938-.214 1.802-.641 2.594-.417.792-1.078 1.438-1.984 1.938-.896.5-2.068.776-3.516.828l-1.359 1.203zM9.672 24H2.75l1.828-3.656h5.094c.823 0 1.495-.13 2.016-.391.521-.271.906-.635 1.156-1.094s.375-.984.375-1.578c0-.667-.115-1.245-.344-1.734a2.316 2.316 0 0 0-1.063-1.125c-.49-.271-1.135-.406-1.938-.406H5.358l.031-3.219h5.625l1.078 1.266c1.385-.021 2.5.224 3.344.734.854.5 1.474 1.151 1.859 1.953.396.802.594 1.661.594 2.578 0 1.458-.318 2.687-.953 3.687-.635.99-1.568 1.734-2.797 2.234-1.219.5-2.708.75-4.469.75zM27.796 7.094V24H23.28V7.094h4.516zm-4.797-4.406c0-.656.229-1.198.687-1.625S24.759.422 25.53.422c.76 0 1.37.214 1.828.641.469.427.703.969.703 1.625s-.234 1.198-.703 1.625c-.458.427-1.068.641-1.828.641-.771 0-1.385-.214-1.844-.641s-.687-.969-.687-1.625zm13.482 4.406h4.5l-.141 5.656c-.042 1.813-.25 3.37-.625 4.672s-.875 2.396-1.5 3.281c-.625.885-1.339 1.594-2.141 2.125a9.44 9.44 0 0 1-2.5 1.172h-.844l-.047-3.469.469-.047c.531-.552.969-1.089 1.312-1.609.344-.531.609-1.089.797-1.672s.323-1.234.406-1.953a23.55 23.55 0 0 0 .172-2.5l.141-5.656zm1.219 0h11.203V24h-4.484V10.703H37.7V7.094zm-5.5 13.39h19.125v8.594h-4.5V24H36.809v5.078H32.2v-8.594zm34.529-13.39v3.531h-8.188V7.094h8.188zm-6.89 0V24h-4.5V7.094h4.5zm10.172 0V24h-4.516V7.094h4.516zm9.888 3.25V30.5h-4.5V7.094h4.172l.328 3.25zm10.704 5.015v.328c0 1.229-.146 2.37-.438 3.422-.281 1.052-.698 1.969-1.25 2.75a5.934 5.934 0 0 1-2.062 1.812c-.813.427-1.75.641-2.813.641-1.031 0-1.927-.208-2.687-.625s-1.401-1-1.922-1.75c-.51-.761-.922-1.641-1.234-2.641s-.552-2.073-.719-3.219v-.859a21.33 21.33 0 0 1 .719-3.375c.313-1.031.724-1.922 1.234-2.672.521-.76 1.156-1.349 1.906-1.766.76-.417 1.651-.625 2.672-.625 1.073 0 2.016.203 2.828.609a5.57 5.57 0 0 1 2.063 1.75c.562.76.984 1.667 1.266 2.719.292 1.052.438 2.219.438 3.5zm-4.516.329v-.328c0-.719-.062-1.38-.187-1.984-.115-.615-.302-1.151-.563-1.609a2.736 2.736 0 0 0-1-1.063c-.406-.26-.901-.391-1.484-.391-.615 0-1.141.099-1.578.297-.427.198-.776.484-1.047.859s-.474.823-.609 1.344-.219 1.109-.25 1.766v2.172c.052.771.198 1.464.437 2.078.24.604.609 1.083 1.109 1.437s1.156.531 1.969.531c.594 0 1.094-.13 1.5-.391.406-.271.734-.641.984-1.109a5.07 5.07 0 0 0 .547-1.625c.115-.615.172-1.276.172-1.984zm18.357 4.5v-7.531c0-.542-.089-1.005-.266-1.391a1.977 1.977 0 0 0-.828-.922c-.365-.219-.839-.328-1.422-.328-.5 0-.932.089-1.297.266a1.877 1.877 0 0 0-.844.734c-.198.313-.297.682-.297 1.109h-4.5c0-.719.167-1.401.5-2.047s.818-1.214 1.453-1.703c.635-.5 1.391-.891 2.266-1.172.885-.281 1.875-.422 2.969-.422 1.312 0 2.479.219 3.5.656s1.823 1.094 2.406 1.969c.594.875.891 1.969.891 3.281v7.234c0 .927.057 1.688.172 2.281a6.01 6.01 0 0 0 .5 1.531v.266H105.1c-.219-.458-.385-1.031-.5-1.719a14.19 14.19 0 0 1-.156-2.094zm.594-6.485.031 2.547h-2.516c-.594 0-1.109.068-1.547.203s-.797.328-1.078.578c-.281.24-.49.521-.625.844-.125.323-.188.677-.188 1.063s.089.734.266 1.047c.177.302.432.542.766.719.333.167.724.25 1.172.25.677 0 1.266-.135 1.766-.406s.885-.604 1.156-1c.281-.396.427-.771.438-1.125l1.187 1.906c-.167.427-.396.87-.687 1.328a6.213 6.213 0 0 1-1.078 1.297 5.548 5.548 0 0 1-1.578.984c-.614.25-1.344.375-2.187.375-1.073 0-2.047-.213-2.922-.641a5.32 5.32 0 0 1-2.063-1.797c-.5-.771-.75-1.646-.75-2.625 0-.885.167-1.672.5-2.359s.823-1.266 1.469-1.734c.656-.479 1.474-.839 2.453-1.078.979-.25 2.115-.375 3.406-.375h2.609zm17.748 3.235h-5.297l-.031-2.953h4.375c.583 0 1.057-.057 1.422-.172.365-.125.63-.307.797-.547.177-.25.266-.552.266-.906 0-.313-.057-.578-.172-.797-.104-.229-.266-.417-.484-.563s-.495-.25-.828-.313a5.228 5.228 0 0 0-1.141-.109h-2.531V24h-4.5V7.094h7.031c1.104 0 2.094.099 2.969.297.875.188 1.62.474 2.234.859.625.385 1.099.875 1.422 1.469.333.583.5 1.276.5 2.078 0 .521-.12 1.01-.359 1.469-.229.458-.573.865-1.031 1.219s-1.026.646-1.703.875c-.667.219-1.438.354-2.313.406l-.625 1.172zm0 7.062h-6.406l1.547-3.484h4.859c.552 0 1.005-.068 1.359-.203s.615-.333.781-.594c.177-.271.266-.594.266-.969 0-.365-.078-.682-.234-.953s-.412-.479-.766-.625c-.344-.156-.812-.234-1.406-.234h-4.203l.031-2.953h4.781l1.094 1.188c1.187.073 2.167.297 2.937.672s1.339.854 1.703 1.437a3.38 3.38 0 0 1 .562 1.891c0 .802-.151 1.505-.453 2.109s-.75 1.109-1.344 1.516c-.583.396-1.302.698-2.156.906-.854.198-1.839.297-2.953.297zm16.077-6.281 5.672-10.625h4.5V24h-4.5V13.359L138.863 24h-4.5V7.094h4.5v10.625zm24.17-10.625V24h-4.516V7.094h4.516zm5.437 0v3.484h-15.312V7.094h15.312zm8.701 10.625 5.672-10.625h4.5V24h-4.5V13.359L177.171 24h-4.5V7.094h4.5v10.625z"
        style="fill:var(--color1, #fff)"
      />
    </symbol>
  </defs>
</svg>
