<svg width="94" height="16" viewBox="0 0 94 16" fill="none" xmlns="http://www.w3.org/2000/svg">
<path d="M4.93781 7.00781H2.01594L2.00031 5.39844H4.45344C4.88573 5.39844 5.2399 5.34375 5.51594 5.23438C5.79198 5.11979 5.99771 4.95573 6.13313 4.74219C6.27375 4.52344 6.34406 4.25781 6.34406 3.94531C6.34406 3.59115 6.27635 3.30469 6.14094 3.08594C6.01073 2.86719 5.805 2.70833 5.52375 2.60938C5.24771 2.51042 4.89094 2.46094 4.45344 2.46094H2.82844V12H0.484688V0.625H4.45344C5.1149 0.625 5.70604 0.6875 6.22688 0.8125C6.75292 0.9375 7.19823 1.1276 7.56281 1.38281C7.9274 1.63802 8.20604 1.96094 8.39875 2.35156C8.59146 2.73698 8.68781 3.19531 8.68781 3.72656C8.68781 4.19531 8.58104 4.6276 8.3675 5.02344C8.15917 5.41927 7.82844 5.74219 7.37531 5.99219C6.9274 6.24219 6.34146 6.38021 5.6175 6.40625L4.93781 7.00781ZM4.83625 12H1.37531L2.28938 10.1719H4.83625C5.24771 10.1719 5.58365 10.1068 5.84406 9.97656C6.10448 9.84115 6.29719 9.65885 6.42219 9.42969C6.54719 9.20052 6.60969 8.9375 6.60969 8.64062C6.60969 8.30729 6.5524 8.01823 6.43781 7.77344C6.32844 7.52865 6.15135 7.34115 5.90656 7.21094C5.66177 7.07552 5.33885 7.00781 4.93781 7.00781H2.68L2.69563 5.39844H5.50813L6.04719 6.03125C6.7399 6.02083 7.29719 6.14323 7.71906 6.39844C8.14615 6.64844 8.45604 6.97396 8.64875 7.375C8.84667 7.77604 8.94563 8.20573 8.94563 8.66406C8.94563 9.39323 8.78677 10.0078 8.46906 10.5078C8.15135 11.0026 7.68521 11.375 7.07063 11.625C6.46125 11.875 5.71646 12 4.83625 12ZM13.8978 3.54688V12H11.64V3.54688H13.8978ZM11.4994 1.34375C11.4994 1.01562 11.614 0.744792 11.8431 0.53125C12.0723 0.317708 12.3796 0.210938 12.765 0.210938C13.1452 0.210938 13.4499 0.317708 13.6791 0.53125C13.9134 0.744792 14.0306 1.01562 14.0306 1.34375C14.0306 1.67188 13.9134 1.94271 13.6791 2.15625C13.4499 2.36979 13.1452 2.47656 12.765 2.47656C12.3796 2.47656 12.0723 2.36979 11.8431 2.15625C11.614 1.94271 11.4994 1.67188 11.4994 1.34375ZM18.2406 3.54688H20.4906L20.4203 6.375C20.3995 7.28125 20.2953 8.0599 20.1078 8.71094C19.9203 9.36198 19.6703 9.90885 19.3578 10.3516C19.0453 10.7943 18.6885 11.1484 18.2875 11.4141C17.8917 11.6745 17.475 11.8698 17.0375 12H16.6156L16.5922 10.2656L16.8266 10.2422C17.0922 9.96615 17.3109 9.69792 17.4828 9.4375C17.6547 9.17188 17.7875 8.89323 17.8813 8.60156C17.975 8.3099 18.0427 7.98438 18.0844 7.625C18.1313 7.26562 18.1599 6.84896 18.1703 6.375L18.2406 3.54688ZM18.85 3.54688H24.4516V12H22.2094V5.35156H18.85V3.54688ZM16.1 10.2422H25.6625V14.5391H23.4125V12H18.4047V14.5391H16.1V10.2422ZM33.3647 3.54688V5.3125H29.2709V3.54688H33.3647ZM29.9194 3.54688V12H27.6694V3.54688H29.9194ZM35.0053 3.54688V12H32.7475V3.54688H35.0053ZM39.9497 5.17188V15.25H37.6997V3.54688H39.7856L39.9497 5.17188ZM45.3013 7.67969V7.84375C45.3013 8.45833 45.2283 9.02865 45.0825 9.55469C44.9419 10.0807 44.7335 10.5391 44.4575 10.9297C44.1815 11.3151 43.8377 11.6172 43.4263 11.8359C43.02 12.0495 42.5513 12.1562 42.02 12.1562C41.5044 12.1562 41.0565 12.0521 40.6763 11.8438C40.296 11.6354 39.9757 11.3438 39.7153 10.9688C39.4601 10.5885 39.2544 10.1484 39.0981 9.64844C38.9419 9.14844 38.8221 8.61198 38.7388 8.03906V7.60938C38.8221 6.99479 38.9419 6.43229 39.0981 5.92188C39.2544 5.40625 39.4601 4.96094 39.7153 4.58594C39.9757 4.20573 40.2934 3.91146 40.6684 3.70312C41.0486 3.49479 41.494 3.39062 42.0044 3.39062C42.5408 3.39062 43.0122 3.49219 43.4184 3.69531C43.8299 3.89844 44.1736 4.1901 44.4497 4.57031C44.7309 4.95052 44.9419 5.40365 45.0825 5.92969C45.2283 6.45573 45.3013 7.03906 45.3013 7.67969ZM43.0434 7.84375V7.67969C43.0434 7.32031 43.0122 6.98958 42.9497 6.6875C42.8924 6.38021 42.7986 6.11198 42.6684 5.88281C42.5434 5.65365 42.3768 5.47656 42.1684 5.35156C41.9653 5.22135 41.7179 5.15625 41.4263 5.15625C41.119 5.15625 40.8559 5.20573 40.6372 5.30469C40.4236 5.40365 40.2492 5.54688 40.1138 5.73438C39.9783 5.92188 39.8768 6.14583 39.8091 6.40625C39.7414 6.66667 39.6997 6.96094 39.6841 7.28906V8.375C39.7101 8.76042 39.783 9.10677 39.9028 9.41406C40.0226 9.71615 40.2075 9.95573 40.4575 10.1328C40.7075 10.3099 41.0356 10.3984 41.4419 10.3984C41.7388 10.3984 41.9888 10.3333 42.1919 10.2031C42.395 10.0677 42.5591 9.88281 42.6841 9.64844C42.8143 9.41406 42.9054 9.14323 42.9575 8.83594C43.0148 8.52865 43.0434 8.19792 43.0434 7.84375ZM52.2222 10.0938V6.32812C52.2222 6.05729 52.1779 5.82552 52.0894 5.63281C52.0008 5.4349 51.8628 5.28125 51.6753 5.17188C51.493 5.0625 51.256 5.00781 50.9644 5.00781C50.7144 5.00781 50.4982 5.05208 50.3159 5.14062C50.1336 5.22396 49.993 5.34635 49.8941 5.50781C49.7951 5.66406 49.7456 5.84896 49.7456 6.0625H47.4956C47.4956 5.70312 47.579 5.36198 47.7456 5.03906C47.9123 4.71615 48.1545 4.43229 48.4722 4.1875C48.7899 3.9375 49.1675 3.74219 49.605 3.60156C50.0477 3.46094 50.5425 3.39062 51.0894 3.39062C51.7456 3.39062 52.329 3.5 52.8394 3.71875C53.3498 3.9375 53.7508 4.26562 54.0425 4.70312C54.3394 5.14062 54.4878 5.6875 54.4878 6.34375V9.96094C54.4878 10.4245 54.5165 10.8047 54.5737 11.1016C54.631 11.3932 54.7144 11.6484 54.8237 11.8672V12H52.5503C52.4409 11.7708 52.3576 11.4844 52.3003 11.1406C52.2482 10.7917 52.2222 10.4427 52.2222 10.0938ZM52.5191 6.85156L52.5347 8.125H51.2769C50.98 8.125 50.7222 8.15885 50.5034 8.22656C50.2847 8.29427 50.105 8.39062 49.9644 8.51562C49.8237 8.63542 49.7196 8.77604 49.6519 8.9375C49.5894 9.09896 49.5581 9.27604 49.5581 9.46875C49.5581 9.66146 49.6024 9.83594 49.6909 9.99219C49.7795 10.1432 49.9071 10.263 50.0737 10.3516C50.2404 10.4349 50.4357 10.4766 50.6597 10.4766C50.9982 10.4766 51.2925 10.4089 51.5425 10.2734C51.7925 10.138 51.9852 9.97135 52.1206 9.77344C52.2612 9.57552 52.3342 9.38802 52.3394 9.21094L52.9331 10.1641C52.8498 10.3776 52.7352 10.599 52.5894 10.8281C52.4487 11.0573 52.2691 11.2734 52.0503 11.4766C51.8316 11.6745 51.5685 11.8385 51.2612 11.9688C50.954 12.0938 50.5894 12.1562 50.1675 12.1562C49.631 12.1562 49.1441 12.0495 48.7066 11.8359C48.2743 11.6172 47.9305 11.3177 47.6753 10.9375C47.4253 10.5521 47.3003 10.1146 47.3003 9.625C47.3003 9.18229 47.3836 8.78906 47.5503 8.44531C47.717 8.10156 47.9618 7.8125 48.2847 7.57812C48.6128 7.33854 49.0217 7.15885 49.5112 7.03906C50.0008 6.91406 50.5685 6.85156 51.2144 6.85156H52.5191ZM61.3931 8.46875H58.7447L58.7291 6.99219H60.9166C61.2082 6.99219 61.4452 6.96354 61.6275 6.90625C61.8098 6.84375 61.9426 6.7526 62.0259 6.63281C62.1145 6.50781 62.1587 6.35677 62.1587 6.17969C62.1587 6.02344 62.1301 5.89062 62.0728 5.78125C62.0207 5.66667 61.94 5.57292 61.8306 5.5C61.7212 5.42708 61.5832 5.375 61.4166 5.34375C61.2551 5.30729 61.065 5.28906 60.8462 5.28906H59.5806V12H57.3306V3.54688H60.8462C61.3983 3.54688 61.8931 3.59635 62.3306 3.69531C62.7681 3.78906 63.1405 3.93229 63.4478 4.125C63.7603 4.31771 63.9973 4.5625 64.1587 4.85938C64.3254 5.15104 64.4087 5.4974 64.4087 5.89844C64.4087 6.15885 64.3489 6.40365 64.2291 6.63281C64.1145 6.86198 63.9426 7.0651 63.7134 7.24219C63.4843 7.41927 63.2004 7.5651 62.8619 7.67969C62.5285 7.78906 62.1431 7.85677 61.7056 7.88281L61.3931 8.46875ZM61.3931 12H58.19L58.9634 10.2578H61.3931C61.6692 10.2578 61.8957 10.224 62.0728 10.1562C62.2499 10.0885 62.3801 9.98958 62.4634 9.85938C62.552 9.72396 62.5962 9.5625 62.5962 9.375C62.5962 9.19271 62.5572 9.03385 62.4791 8.89844C62.4009 8.76302 62.2733 8.65885 62.0962 8.58594C61.9244 8.50781 61.69 8.46875 61.3931 8.46875H59.2916L59.3072 6.99219H61.6978L62.2447 7.58594C62.8384 7.6224 63.328 7.73438 63.7134 7.92188C64.0989 8.10938 64.3827 8.34896 64.565 8.64062C64.7525 8.92708 64.8462 9.24219 64.8462 9.58594C64.8462 9.98698 64.7707 10.3385 64.6197 10.6406C64.4686 10.9427 64.2447 11.1953 63.9478 11.3984C63.6561 11.5964 63.2968 11.7474 62.8697 11.8516C62.4426 11.9505 61.9504 12 61.3931 12ZM69.4313 8.85938L72.2672 3.54688H74.5172V12H72.2672V6.67969L69.4313 12H67.1813V3.54688H69.4313V8.85938ZM81.5163 3.54688V12H79.2584V3.54688H81.5163ZM84.235 3.54688V5.28906H76.5788V3.54688H84.235ZM88.5856 8.85938L91.4216 3.54688H93.6716V12H91.4216V6.67969L88.5856 12H86.3356V3.54688H88.5856V8.85938Z" fill="white"/>
</svg>
